<svg width="20" height="23" viewBox="0 0 20 23" fill="none" xmlns="http://www.w3.org/2000/svg">
<path d="M14.7936 0C13.4592 0 12.1473 0.517044 11.1353 1.52865L2.13934 10.5207C-0.713114 13.3719 -0.713114 18.0103 2.13934 20.8616C4.9918 23.7128 9.6322 23.7128 12.4847 20.8616L18.4819 14.8669L17.1325 13.5181L11.1353 19.5128C9.01748 21.6296 5.60652 21.6296 3.48873 19.5128C1.37094 17.3959 1.37094 13.9864 3.48873 11.8695L12.4847 2.87746C13.7741 1.5886 15.8431 1.5886 17.1325 2.87746C18.422 4.16632 18.422 6.23449 17.1325 7.52336L8.13663 16.5154C7.67558 16.9763 6.94841 16.9763 6.48737 16.5154C6.02633 16.0546 6.02633 15.3277 6.48737 14.8669L14.7336 6.62415L13.3842 5.27534L5.13798 13.5181C3.94228 14.7133 3.94228 16.669 5.13798 17.8642C6.33369 19.0594 8.29031 19.0594 9.48601 17.8642L18.4819 8.87216C20.506 6.84895 20.506 3.55186 18.4819 1.52865C17.4699 0.517044 16.128 0 14.7936 0Z" fill="#B1B6C9"/>
</svg>
